PathFileType	4	(X/Y/Z)	C:\Users\u0088756\Documents\PostDoc\Conferences\Amsterdam_2018\Resources\Resources\MoCap\subject01_walk1_m.trc
DataRate	CameraRate	NumFrames	NumMarkers	Units	OrigDataRate	OrigDataStartFrame	OrigNumFrames
60.000000	60.000000	10	41	m	60.000000	76	151
Frame#	Times		R.ASIS		L.ASIS		V.Sacral		R.Thigh.Upper		R.Thigh.Front		R.Thigh.Rear		L.Thigh.Upper		L.Thigh.Front		L.Thigh.Rear		R.Shank.Upper		R.Shank.Front		R.Shank.Rear		L.Shank.Upper		L.Shank.Front		L.Shank.Rear		R.Heel		R.Midfoot.Sup		R.Midfoot.Lat		R.Toe.Tip		L.Heel		L.Midfoot.Sup		L.Midfoot.Lat		L.Toe.Tip		Sternum		R.Acromium		L.Acromium		R.Bicep		L.Bicep		R.Elbow		L.Elbow		R.Wrist.Med		R.Wrist.Lat		L.Wrist.Med		L.Wrist.Lat		R.Toe.Lat		R.Toe.Med		L.Toe.Lat		L.Toe.Med		R.Temple		L.Temple		Top.Head
			X1	Y1	Z1	X2	Y2	Z2	X3	Y3	Z3	X4	Y4	Z4	X5	Y5	Z5	X6	Y6	Z6	X7	Y7	Z7	X8	Y8	Z8	X9	Y9	Z9	X10	Y10	Z10	X11	Y11	Z11	X12	Y12	Z12	X13	Y13	Z13	X14	Y14	Z14	X15	Y15	Z15	X16	Y16	Z16	X17	Y17	Z17	X18	Y18	Z18	X19	Y19	Z19	X20	Y20	Z20	X21	Y21	Z21	X22	Y22	Z22	X23	Y23	Z23	X24	Y24	Z24	X25	Y25	Z25	X26	Y26	Z26	X27	Y27	Z27	X28	Y28	Z28	X29	Y29	Z29	X30	Y30	Z30	X31	Y31	Z31	X32	Y32	Z32	X33	Y33	Z33	X34	Y34	Z34	X35	Y35	Z35	X36	Y36	Z36	X37	Y37	Z37	X38	Y38	Z38	X39	Y39	Z39	X40	Y40	Z40	X41	Y41	Z41

76	1.25	588.91	1051.9	176.1	611.34	1044.2	-86.378	401.39	1052.1	36.136	481.84	739.73	212.44	535.63	664.33	127.93	444.14	625.48	201.89	629.55	743.99	-139.55	720.7	735.76	-67.121	665.83	642.15	-128.6	321.83	474.89	185.4	384.59	413.25	135.53	304.59	389.4	188.93	723.84	444.55	-120.94	788.17	414.83	-70.336	719.2	397.07	-127.96	125.31	110.85	93.729	269.95	89.097	68.434	252.55	72.93	175.83	397.9	43.574	118.87	788.93	65.943	-38.279	942.4	128.58	-14.682	929.94	116.21	-110.96	1055.5	151.62	-44.742	630.76	1352.6	25.665	541.37	1446.8	236.78	561.1	1466.7	-180.34	572.93	1247.2	286.37	541.28	1231.2	-214.23	548.98	1141.1	323.75	474.46	1144.5	-249.07	752.73	970.04	276.38	729.37	942.06	332.87	569.23	910.14	-209.24	521.04	902.48	-266.48	327.16	35.496	196.87	346.5	39.583	86.432	998.94	118.7	-119.93	1010.3	131.37	-18.071	706.25	1574.8	111.83	717.33	1578.3	-26.659	717	1751.5	51.179
77	1.267	592.12	1050.2	173.94	613.79	1042.7	-87.417	403.15	1050.3	33.274	482.11	739.36	211.95	537.06	662.57	127.89	443.03	625.15	201.84	633.34	742.8	-139.21	727.03	737.38	-68.14	672.66	641.25	-126.96	320.44	475.48	185.89	379.22	411.73	136.35	299.96	390.93	189.79	729.38	442.89	-119.29	791.57	410.9	-68.032	721.96	396.17	-126.38	110.46	118.9	94.504	253.78	91.421	69.254	235.77	74.92	176.52	378.76	43.497	118.3	776.26	66.217	-37.194	932.08	118.69	-12.111	920.72	107.79	-108.27	1046.3	136.49	-40.048	631.32	1351.4	22.868	541.25	1445.7	232.8	561.28	1463.4	-184.5	571.58	1246.8	282.96	544.2	1227.6	-217.71	547.39	1140.8	320.84	478.73	1140.7	-252.69	748.3	966.21	276.85	724.74	939.62	332.96	574.33	906.6	-211.92	525.94	898.38	-269.11	310.56	35.234	197.71	328.72	38.858	86.37	988.72	106.44	-116.61	1000.3	118.1	-14.544	706.22	1573.8	107.66	716.61	1576.3	-30.845	716.81	1750	46.614
78	1.283	592.68	1049.7	172.69	614.8	1040.5	-88.75	405.43	1048.9	30.388	485.68	739.4	214.26	538.37	661.26	129.28	444.7	624.35	201.44	636.81	742.02	-138.97	733.19	738.53	-71.53	676.05	640.93	-124.13	319.35	476.6	185.32	377.92	411.24	137.42	296.35	393.25	190.64	731.51	440.74	-116.52	791.85	406.77	-65.249	723.84	395.76	-125.03	96.826	128.67	95.301	238.39	94.323	70.166	219.59	77.557	177.26	359.63	43.358	117.7	761.95	67.268	-36.728	920.35	108.76	-10.136	909.78	99.278	-106.3	1035.3	120.51	-36.45	633.02	1349.7	19.264	541.1	1445.1	228.5	562.86	1460.9	-189.34	569.78	1246.6	279.78	547.39	1224.1	-221.23	545.35	1141	317.68	482.52	1136.8	-255.61	742.86	962.13	276.4	719.21	936.77	333.52	578.81	903.66	-214.44	531.23	895.18	-271.93	291.97	34.529	198.38	311.17	38.066	86.35	976.1	93.458	-114.28	988.36	103.99	-12.044	705.61	1573.2	103.34	716.67	1575.8	-35.088	716.35	1749.4	42.334
79	1.3	595.21	1049.3	170.85	618.23	1040.2	-89.842	408.14	1048.1	27.635	486.16	738.28	213.63	540.98	660.08	129.54	447.27	623.9	202.96	640.09	741.84	-139.24	737.65	738.87	-74.484	678.92	640.43	-123.23	320.39	477.51	186.71	376.45	409.98	139.58	293.9	395.28	191.82	735.65	441.74	-116.47	793.13	405.43	-63.825	725	395.78	-124.51	84.898	140.5	96.237	224.2	98.149	71.046	204.3	81.182	177.98	340.65	43.051	117.11	747.1	68.827	-36.775	908.03	100.14	-8.5062	897.6	91.537	-105.01	1023.1	105.6	-34.151	634.61	1349.3	14.927	540.86	1445.7	223.17	564.62	1458.8	-194.51	568.77	1246.9	276.25	548.89	1221.5	-223.94	542.79	1141.8	314.27	486.94	1133.9	-259.26	736.86	957.99	277.92	711.82	933.93	334.06	583.87	900.74	-217.32	535.49	892.41	-274.56	273.33	34.347	198.69	293.88	37.314	86.371	962.02	81.293	-112.84	975.13	90.891	-10.477	706.18	1573.2	99.119	717.9	1575.9	-39.495	716.4	1749.4	37.113
80	1.317	597.96	1049.4	168.77	621.89	1041.3	-91.221	411.16	1047.6	25.153	490.52	737.68	213.59	548.33	659.78	130.33	454.83	622.88	203.29	643.4	742.42	-140.37	741.79	738.86	-77.414	681.35	641.26	-123.18	325.77	480.23	188.59	378.48	408.59	140.78	295.04	398.6	191.5	738	442.28	-117.7	793.71	403.83	-63.517	725.25	396.06	-125.18	75.516	154.8	97.372	211.75	103.26	71.837	190.25	86.222	178.57	322.03	42.479	116.62	731.91	70.536	-37.17	895.11	93.307	-7.2955	884.21	85.082	-104.37	1009.8	92.659	-33.05	636.99	1350.4	10.797	539.85	1446.5	219	567.34	1457.6	-199.53	567.52	1248.3	272.24	555.6	1220.5	-228.58	539.74	1143.3	310.58	491.7	1131.4	-262.34	730	954.89	278.85	703.38	931.62	335.57	590.31	898.64	-219.86	541.11	889.89	-277.17	256.37	33.331	198.67	277.08	36.964	86.355	946.99	70.831	-112.1	960.87	79.91	-9.645	704.86	1573.9	95.026	718.12	1576.9	-43.822	716.33	1750.8	32.397
81	1.333	600.92	1050	166.97	625.39	1042.9	-93.449	414.35	1047.6	22.987	497.59	737.96	212.82	557.45	659.29	130.8	463.43	621.23	204.1	646.59	743.73	-142.45	745.94	740.28	-79.132	685.27	642.58	-125.54	334.42	482.05	190.31	385.31	407.4	142.59	299.76	401.97	193.46	736.57	442.54	-117.91	791.67	402.03	-64.039	723.98	396.37	-126.97	69.737	171.81	98.449	201.66	109.91	72.592	177.85	93.106	178.94	303.91	41.509	116.43	716.17	72.067	-37.802	881.15	88.106	-6.8314	869.54	80.041	-104.4	995.25	81.889	-32.923	638.38	1351.7	7.1667	540.59	1448.2	213.26	568.82	1457.7	-204.61	565.55	1249.9	267.91	559.75	1219.6	-232.04	536.28	1145.5	306.63	498.14	1129.8	-265.62	722.44	951.17	280.36	692.32	931.05	336.86	595.94	896.84	-221.75	546.6	887.94	-279.31	239.76	34.75	198.2	261.17	37.594	86.305	931.25	62.337	-111.94	945.65	71.344	-9.4417	706.62	1576.3	90.223	719.18	1578.5	-48.42	715.44	1752.3	27.778
82	1.35	604.22	1051.4	164.05	628.72	1046	-95.968	417.51	1048.1	21.039	508.15	737.47	212.28	568.22	659.14	132.28	475.04	619.98	206.27	649.1	745.49	-145.31	747.01	741.37	-79.64	688.61	644.96	-128.15	347.97	482.42	191.08	394.51	405.99	145.93	308.44	405.21	194.42	734.72	442.33	-120.77	787.56	400.55	-64.853	720.66	396.55	-129.56	68.601	191.49	99.078	194.55	118.16	73.459	167.68	102.2	179.05	286.52	39.974	116.87	699.7	73.202	-38.65	865.86	84.162	-7.2554	853.63	76.245	-105.08	979.49	73.181	-33.563	639.98	1353.5	2.6927	539.96	1449.8	209.03	570.56	1457.8	-208.96	563.94	1252.6	263.8	565.98	1220.1	-235.79	532.47	1148.3	302.46	505.13	1128.7	-269.13	713.7	948.57	282.77	682.25	929.72	338.31	601.57	896.24	-224.27	553.05	886.96	-280.99	223.6	36.871	198.3	246.61	39.784	86.407	914.95	55.76	-112.32	929.5	64.98	-9.8453	706.84	1578.1	85.005	720.24	1580.6	-52.543	713.2	1754	23.321
83	1.367	607.62	1053.1	160.48	631.64	1048.8	-99.294	420.4	1048.9	19.084	519.58	736.32	210.6	582.31	659.29	134.06	491.07	617.24	207.79	650.36	747.35	-148.6	747.83	742.23	-82.461	687.63	646.34	-131.38	364.58	483.1	194.51	407.87	404.63	147.9	320.47	408.48	197.85	730.65	441.96	-123.97	781.28	398.75	-66.877	715.03	396.58	-132.52	72.958	213.38	99.048	190.99	127.81	74.584	160.54	113.69	178.96	270.34	37.824	118.15	682.54	73.879	-39.718	849.3	81.173	-8.2902	836.64	73.458	-106.17	962.76	66.393	-34.758	641.16	1356.3	-1.2044	540.22	1452.8	204.82	572.39	1459.4	-214.02	561.67	1255.2	260.15	571.22	1220.2	-238.82	528.37	1151.5	298.17	513.55	1128.1	-272.03	704.19	946.49	284.55	671.49	928.57	339.37	608.54	895.92	-226.72	560.17	886.75	-283.72	207	39.908	197.88	233.94	43.889	86.94	898.22	50.947	-113.14	912.51	60.433	-10.747	704.96	1580.5	81.494	720.75	1582.9	-57.07	714.83	1756.8	18.947
84	1.383	610.24	1054.5	156.67	634.04	1051.4	-102.68	422.77	1050	16.891	531.23	735.8	212.81	599.71	660.9	134.84	508.14	615.54	209.3	650.03	749.15	-151.97	749.54	742.59	-86.588	684.86	647.33	-135.27	384.82	484.7	196.62	424.02	403.65	151.04	336.88	411.79	199.19	722.92	440.99	-127.96	771.83	396.73	-68.921	707.02	396.47	-135.44	83.185	236.49	98.373	191.41	138.49	75.998	157.33	127.35	178.8	256.41	35.384	120.24	664.83	74.182	-40.89	831.76	78.953	-9.4593	818.84	71.537	-107.34	945.28	61.38	-36.2	642.39	1358.8	-4.6697	541.68	1456	200.54	573.88	1460.8	-217.97	558.77	1258.3	256.36	576.82	1221.2	-241.76	524.07	1154.9	293.95	520.59	1128.3	-274.36	694.37	944.69	286.87	659.59	927.65	339.87	616.91	896.04	-229.41	568.47	886.59	-285.79	194	46.471	198.17	224	49.97	88.077	881.03	47.687	-114.14	894.87	57.332	-11.86	705.32	1583.4	77.936	720.22	1585.9	-60.439	713.59	1759.6	14.826
85	1.4	612.64	1056.7	153.94	635.23	1053.7	-105.66	424.41	1051.4	14.384	543.81	735.01	210.42	616.18	662.11	136.21	527	613.81	209.87	648.11	750.88	-155.19	747.02	741.97	-90.469	681.21	648.81	-138.25	408.21	485.84	197.91	442.32	403.26	153.42	355.65	415.9	200.98	713.51	440.71	-130.09	762.02	395.46	-71.91	696.79	396.28	-138.04	98.688	259.34	97.134	196.06	149.73	77.558	158.74	142.5	178.65	246.52	33.529	122.92	646.73	74.258	-41.924	813.48	77.351	-10.421	800.55	70.355	-108.32	927.24	57.922	-37.537	643.3	1361.9	-7.4193	540.95	1459.5	196.87	575.23	1462.2	-221.49	556.4	1261.1	252.88	583.25	1222.5	-243.67	519.65	1158.4	290.01	527.92	1128.6	-276.53	683.55	942.81	288.6	647.36	927.23	340.62	623.84	895.94	-230.15	577.04	887.33	-288.06	184.07	56.159	197.6	218.14	57.841	89.804	863.3	45.714	-115.06	876.77	55.344	-12.853	705.2	1586.8	73.874	720.31	1589	-64.163	712.54	1764.2	10.554
